solid inlet
  facet normal -1.000000e+00 -1.046483e-16 4.623254e-16
    outer loop
      vertex   -5.763333e+00 4.243633e+00 5.763333e+00
      vertex   -5.763333e+00 4.243633e+00 0.000000e+00
      vertex   -5.763333e+00 -4.243633e+00 5.763333e+00
    endloop
  endfacet
  facet normal -1.000000e+00 -1.046483e-16 4.623254e-16
    outer loop
      vertex   -5.763333e+00 -4.243633e+00 5.763333e+00
      vertex   -5.763333e+00 4.243633e+00 0.000000e+00
      vertex   -5.763333e+00 -4.243633e+00 0.000000e+00
    endloop
  endfacet
endsolid inlet
