solid outlet
  facet normal 1.000000e+00 -0.000000e+00 0.000000e+00
    outer loop
      vertex   2.275000e+01 -4.243633e+00 1.001000e+01
      vertex   2.275000e+01 -4.243633e+00 0.000000e+00
      vertex   2.275000e+01 4.243633e+00 1.001000e+01
    endloop
  endfacet
  facet normal 1.000000e+00 0.000000e+00 0.000000e+00
    outer loop
      vertex   2.275000e+01 4.243633e+00 1.001000e+01
      vertex   2.275000e+01 -4.243633e+00 0.000000e+00
      vertex   2.275000e+01 4.243633e+00 0.000000e+00
    endloop
  endfacet
endsolid outlet
